<svg viewBox="0 0 395.52 104.23827169074441" height="104.23827169074441" width="395.52">
	<g>
		<svg viewBox="0 0 570.3563965583861 150.3159512161383" height="104.23827169074441" width="395.52">
			<g transform="matrix(1,0,0,1,0,54.38462690489912)">
				<svg viewBox="0 0 395.52 41.54669740634005" height="41.54669740634005" width="395.52">
					<g id="textblocktransform">
						<svg viewBox="0 0 395.52 41.54669740634005" height="41.54669740634005" width="395.52" id="textblock">
							<g>
								<svg viewBox="0 0 395.52 41.54669740634005" height="41.54669740634005" width="395.52">
									<g transform="matrix(1,0,0,1,0,0)">
										<svg width="395.52" viewBox="1 -36 346.9800109863281 36.45000076293945" height="41.54669740634005" data-palette-color="#000000">
											<path d="M23.25-1.2Q23.25-0.65 20.18-0.33 17.1 0 14.03 0 10.95 0 10.13-0.28 9.3-0.55 9.3-1.2L9.3-1.2 9.3-22.7 2.35-22.7Q1.8-22.7 1.4-24.1 1-25.5 1-28.28 1-31.05 1.6-33.27 2.2-35.5 3.2-35.5L3.2-35.5 30.25-35.5Q31-35.5 31.28-34.1 31.55-32.7 31.55-30.05 31.55-27.4 31-25.05 30.45-22.7 29.5-22.7L29.5-22.7 23.25-22.7 23.25-1.2ZM59.9 0L59.9 0 38.7 0Q36.25 0 35.4-0.35 34.55-0.7 34.55-1.45L34.55-1.45 34.55-33.1Q34.55-34.4 35.72-34.95 36.9-35.5 39.95-35.5L39.95-35.5 60.05-35.5Q61.1-35.5 61.1-32.02 61.1-28.55 60.65-26.73 60.2-24.9 59.45-24.9L59.45-24.9Q56.2-24.9 48.5-25.55L48.5-25.55 48.5-22.2Q55.9-22.5 58.15-22.5L58.15-22.5Q59.5-22.5 59.5-19.35 59.5-16.2 58.97-14.58 58.45-12.95 57.55-12.95L57.55-12.95 48.5-13.15 48.5-9.95Q57.2-10.6 60.5-10.6L60.5-10.6Q61.55-10.6 61.55-7.1 61.55-3.6 61.1-1.8 60.65 0 59.9 0ZM90.1-0.38Q88.1 0.1 86.02 0.28 83.95 0.45 81.97 0.45 80 0.45 78.92 0.35 77.85 0.25 76.1-0.15 74.35-0.55 72.9-1.25 71.45-1.95 69.82-3.3 68.2-4.65 67.1-6.5L67.1-6.5Q64.55-10.8 64.55-17.6L64.55-17.6Q64.55-22.15 65.97-25.65 67.4-29.15 69.42-31.05 71.45-32.95 74.05-34.1L74.05-34.1Q78.25-36 82.5-36L82.5-36Q88.6-36 91.25-35L91.25-35Q92.45-34.55 93.4-33.6 94.35-32.65 94.35-30.85 94.35-29.05 93.47-26.3 92.6-23.55 90.95-23.55L90.95-23.55Q90.45-23.55 87.25-24.35 84.05-25.15 82.9-25.15L82.9-25.15Q81.15-25.15 79.92-23.2 78.7-21.25 78.7-17.65 78.7-14.05 79.77-12.05 80.85-10.05 82.6-10.05L82.6-10.05Q83.85-10.05 87.12-11.08 90.4-12.1 90.95-12.1L90.95-12.1Q92.5-12.1 93.37-9.25 94.25-6.4 94.25-4.65 94.25-2.9 93.17-1.88 92.1-0.85 90.1-0.38ZM111.79-1.45Q111.79-0.8 108.77-0.4 105.74 0 102.67 0 99.59 0 98.72-0.35 97.84-0.7 97.84-1.45L97.84-1.45 97.84-32.2Q97.84-33.45 100.74-34.48 103.64-35.5 107.04-35.5L107.04-35.5Q111.79-35.5 111.79-33.25L111.79-33.25 111.79-22.25 116.24-22.25 116.24-32.2Q116.24-33.45 119.17-34.48 122.09-35.5 125.49-35.5L125.49-35.5Q130.19-35.5 130.19-33.25L130.19-33.25 130.19-1.45Q130.19-0.8 127.14-0.4 124.09 0 121.04 0 117.99 0 117.12-0.35 116.24-0.7 116.24-1.45L116.24-1.45 116.24-12.9 111.79-12.9 111.79-1.45ZM148.14-1.45Q148.14-0.8 145.07-0.4 141.99 0 138.94 0 135.89 0 135.04-0.35 134.19-0.7 134.19-1.45L134.19-1.45 134.19-32.15Q134.19-33.4 137.07-34.45 139.94-35.5 143.59-35.5L143.59-35.5Q144.89-35.5 145.54-35.4L145.54-35.4Q147.24-35.15 147.94-33.25L147.94-33.25 152.74-20.35 152.94-20.35 152.94-32.15Q152.94-33.4 155.79-34.45 158.64-35.5 162.29-35.5L162.29-35.5Q165.44-35.5 166.29-34.3L166.29-34.3Q166.89-33.45 166.89-32.75L166.89-32.75 166.89-1.45Q166.89-0.8 163.82-0.4 160.74 0 157.07 0 153.39 0 153.04-0.95L153.04-0.95 148.39-13.25 148.14-13.25 148.14-1.45ZM184.84-1.2Q184.84-0.65 181.79-0.33 178.74 0 175.66 0 172.59 0 171.74-0.28 170.89-0.55 170.89-1.2L170.89-1.2 170.89-32.3Q170.89-33.4 173.79-34.48 176.69-35.55 180.29-35.55L180.29-35.55Q183.49-35.55 184.49-34.2L184.49-34.2Q184.84-33.7 184.84-33.2L184.84-33.2 184.84-1.2ZM213.89-0.38Q211.89 0.1 209.81 0.28 207.74 0.45 205.76 0.45 203.79 0.45 202.71 0.35 201.64 0.25 199.89-0.15 198.14-0.55 196.69-1.25 195.24-1.95 193.61-3.3 191.99-4.65 190.89-6.5L190.89-6.5Q188.34-10.8 188.34-17.6L188.34-17.6Q188.34-22.15 189.76-25.65 191.19-29.15 193.21-31.05 195.24-32.95 197.84-34.1L197.84-34.1Q202.04-36 206.29-36L206.29-36Q212.39-36 215.04-35L215.04-35Q216.24-34.55 217.19-33.6 218.14-32.65 218.14-30.85 218.14-29.05 217.26-26.3 216.39-23.55 214.74-23.55L214.74-23.55Q214.24-23.55 211.04-24.35 207.84-25.15 206.69-25.15L206.69-25.15Q204.94-25.15 203.71-23.2 202.49-21.25 202.49-17.65 202.49-14.05 203.56-12.05 204.64-10.05 206.39-10.05L206.39-10.05Q207.64-10.05 210.91-11.08 214.19-12.1 214.74-12.1L214.74-12.1Q216.29-12.1 217.16-9.25 218.04-6.4 218.04-4.65 218.04-2.9 216.96-1.88 215.89-0.85 213.89-0.38ZM235.58-1.45Q235.58-0.7 232.36-0.35 229.13 0 226.23 0 223.33 0 222.48-0.35 221.63-0.7 221.63-1.45L221.63-1.45 221.63-33.15Q221.63-34.45 222.93-35 224.23-35.55 227.83-35.55L227.83-35.55 246.38-35.55Q247.43-35.55 247.43-31.78 247.43-28 246.96-26.03 246.48-24.05 245.73-24.05L245.73-24.05 235.58-24.55 235.58-21.15Q242.23-21.45 244.48-21.45L244.48-21.45Q245.23-21.45 245.51-20.65 245.78-19.85 245.78-17.57 245.78-15.3 245.28-13.23 244.78-11.15 243.88-11.15L243.88-11.15 235.58-11.45 235.58-1.45ZM273.48 0L255.13 0Q252.63 0 251.78-0.28 250.93-0.55 250.93-1.2L250.93-1.2 250.93-32.3Q250.93-33.4 253.83-34.48 256.73-35.55 260.33-35.55L260.33-35.55Q263.53-35.55 264.53-34.2L264.53-34.2Q264.88-33.7 264.88-33.2L264.88-33.2 264.88-11.05Q270.98-11.45 274.08-11.45L274.08-11.45Q275.13-11.45 275.13-8.13 275.13-4.8 274.68-2.4 274.23 0 273.48 0L273.48 0ZM310.43-13.95Q310.43-6.75 306.3-3.18 302.18 0.4 294.35 0.4 286.53 0.4 282.33-3.18 278.13-6.75 278.13-13.95L278.13-13.95 278.13-32.3Q278.13-33.55 280.95-34.55 283.78-35.55 287.53-35.55L287.53-35.55Q290.53-35.55 291.43-34.4L291.43-34.4Q292.08-33.5 292.08-32.85L292.08-32.85 292.08-17.95Q292.08-12.3 292.5-10.48 292.93-8.65 294.33-8.65 295.73-8.65 296.1-10.43 296.48-12.2 296.48-18L296.48-18 296.48-32.3Q296.48-33.55 299.3-34.55 302.13-35.55 305.83-35.55L305.83-35.55Q308.98-35.55 309.83-34.4L309.83-34.4Q310.43-33.5 310.43-32.85L310.43-32.85 310.43-13.95ZM322.88 0L322.88 0Q319.23 0 316.08-0.63 312.93-1.25 312.93-2.45L312.93-2.45Q312.93-3.15 315-7.03 317.08-10.9 321.28-18L321.28-18Q313.78-32.1 313.78-32.8L313.78-32.8Q313.78-33.9 316.95-34.7 320.13-35.5 322.75-35.5 325.38-35.5 327.05-34.7 328.73-33.9 328.88-33.1L328.88-33.1 330.83-24.25 331.08-24.25 332.48-33Q332.53-33.35 333.68-33.95 334.83-34.55 336.75-35.02 338.68-35.5 341.2-35.5 343.73-35.5 345.43-34.9 347.13-34.3 347.13-32.65L347.13-32.65Q347.13-31.8 345.33-27.7 343.53-23.6 339.88-16.3L339.88-16.3Q347.98-3.15 347.98-2.45L347.98-2.45Q347.98 0 342.03 0L342.03 0Q333.18 0 332.53-2.4L332.53-2.4 330.58-9.35 330.28-9.35 328.68-2.4Q328.13 0 322.88 0Z" opacity="1" transform="matrix(1,0,0,1,0,0)" fill="#000000" class="wordmark-text-0" data-fill-palette-color="primary" id="text-0"/>
										</svg>
									</g>
								</svg>
							</g>
						</svg>
					</g>
				</svg>
			</g>
			<g transform="matrix(1,0,0,1,420.04044534224784,0)">
				<svg viewBox="0 0 150.3159512161383 150.3159512161383" height="150.3159512161383" width="150.3159512161383">
					<g>
						<svg viewBox="0 0 150.3159512161383 150.3159512161383" height="150.3159512161383" width="150.3159512161383">
							<g transform="matrix(1,0,0,1,51.70240183063292,39.72816613292326)">
								<svg viewBox="0 0 46.91114755487246 70.85961895029178" height="70.85961895029178" width="46.91114755487246">
									<g>
										<svg xmlns="http://www.w3.org/2000/svg" xmlns:xlink="http://www.w3.org/1999/xlink" version="1.1" x="0" y="0" viewBox="24.761856079101562 5 59.5826416015625 90" enable-background="new 0 0 100 100" xml:space="preserve" height="70.85961895029178" width="46.91114755487246" class="icon-s-0" data-fill-palette-color="accent" id="s-0">
											<g fill="#000000" data-fill-palette-color="accent">
												<path d="M73.76 35.603C86.875 48 91.5 66.25 65.633 82.379c3.64-4.928 5.654-9.794 6.096-14.669 0.951-10.516-5.606-19.072-12.835-26.752C48.298 29.7 47.51 18.84 56.413 6.782 54.578 22.641 64.6 26.944 73.76 35.603zM45.288 93.716c6.184-13.053 7.276-20.302-8.197-34.939-4.204-3.977-7.451-8.029-9.71-12.086-2.881 6.435-5.164 20.081 3.244 27.935C36.312 79.938 44.125 83.125 45.288 93.716zM56.709 43.014C48.183 33.954 41.999 21.253 54 5 21.497 17.692 19.625 38.125 39.151 56.597 55.603 72.158 54.75 80.75 48 95 79.875 71.5 68.709 55.764 56.709 43.014z" fill="#000000" data-fill-palette-color="accent"/>
											</g>
											<g display="none" fill="#000000" data-fill-palette-color="accent">
												<path display="inline" d="M54 5C16.75 17.5 14.875 56.5 26.75 70.762c10.558 12.68 15.407 7.949 19.675 20.824" fill="#000000" data-fill-palette-color="accent"/>
												<line display="inline" x1="56.988" y1="5.261" x2="45.528" y2="136.262" fill="#000000" data-fill-palette-color="accent"/>
												<line display="inline" x1="54.131" y1="3.502" x2="42.67" y2="134.502" fill="#000000" data-fill-palette-color="accent"/>
												<path display="inline" d="M42.875 76" fill="#000000" data-fill-palette-color="accent"/>
											</g>
										</svg>
									</g>
								</svg>
							</g>
							<g>
								<path d="M15.347 52.385c0.119 0.041 0.099 0.404-0.061 1.087-0.157 0.677-0.349 1.342-0.575 1.994-0.226 0.653-0.398 1.057-0.515 1.214-0.124 0.154-0.255 0.207-0.393 0.159v0l-6.855-2.376-0.767 2.213c-0.041 0.119-0.225 0.172-0.551 0.158-0.33-0.023-0.789-0.136-1.379-0.341-0.59-0.205-1.099-0.451-1.526-0.74-0.431-0.297-0.611-0.549-0.54-0.757v0l2.993-8.635c0.054-0.157 0.242-0.211 0.563-0.164 0.317 0.039 0.758 0.157 1.322 0.353 0.565 0.196 1.075 0.439 1.53 0.731 0.461 0.293 0.657 0.54 0.587 0.741v0l-0.689 1.987z" fill="#000000" data-fill-palette-color="accent"/>
								<path d="M24.139 37.258v0l-3.896 6.001c-0.3 0.463-0.535 0.75-0.703 0.863-0.172 0.118-0.327 0.132-0.467 0.042v0l-8.961-5.818c-0.245-0.159-0.348-0.385-0.309-0.676 0.035-0.286 0.241-0.719 0.617-1.299v0l3.696-5.692c0.127-0.195 0.519-0.079 1.176 0.348 0.658 0.427 1.132 0.794 1.423 1.102 0.291 0.308 0.39 0.534 0.296 0.679v0c-0.398 0.613-1.13 1.607-2.197 2.982v0l0.944 0.613c0.852-1.435 1.416-2.364 1.692-2.788v0c0.166-0.256 0.548-0.191 1.144 0.197 0.591 0.384 1.007 0.725 1.248 1.024 0.241 0.299 0.308 0.533 0.199 0.7v0l-1.716 2.533 0.902 0.586c0.945-1.724 1.62-2.897 2.025-3.521v0c0.127-0.195 0.519-0.079 1.177 0.348 0.663 0.431 1.138 0.798 1.423 1.102 0.286 0.304 0.381 0.529 0.287 0.674z" fill="#000000" data-fill-palette-color="accent"/>
								<path d="M34.714 26.236c-0.254 0.38-0.541 0.746-0.86 1.096-0.314 0.345-0.635 0.669-0.961 0.971-0.327 0.302-0.585 0.528-0.774 0.675-0.198 0.148-0.471 0.323-0.817 0.526-0.351 0.198-0.698 0.352-1.04 0.461-0.347 0.104-0.761 0.171-1.242 0.199-0.476 0.024-0.944-0.032-1.404-0.167v0c-1.078-0.324-2.137-1.046-3.175-2.168v0c-0.695-0.751-1.194-1.525-1.497-2.321-0.299-0.792-0.426-1.502-0.384-2.131 0.048-0.623 0.198-1.229 0.451-1.816v0c0.403-0.953 0.956-1.754 1.658-2.404v0c1.004-0.93 1.8-1.517 2.388-1.763v0c0.272-0.107 0.558-0.155 0.859-0.143 0.3 0.012 0.588 0.166 0.864 0.463 0.275 0.297 0.552 0.738 0.831 1.323 0.274 0.589 0.274 1.01 0 1.262v0c-0.083 0.077-0.449 0.293-1.097 0.649-0.653 0.36-1.075 0.629-1.265 0.805v0c-0.288 0.266-0.382 0.653-0.284 1.159 0.093 0.511 0.415 1.064 0.965 1.66 0.551 0.595 1.07 0.974 1.557 1.139 0.482 0.169 0.868 0.12 1.156-0.146v0c0.21-0.194 0.506-0.627 0.889-1.299 0.378-0.667 0.614-1.044 0.706-1.129v0c0.258-0.239 0.677-0.188 1.257 0.154 0.58 0.333 1.003 0.643 1.269 0.93 0.271 0.293 0.393 0.605 0.365 0.938-0.018 0.333-0.156 0.692-0.415 1.077z" fill="#000000" data-fill-palette-color="accent"/>
								<path d="M44.937 19.218c0.069 0.129-0.176 0.391-0.735 0.785-0.561 0.403-1.146 0.767-1.756 1.091-0.61 0.324-1.022 0.498-1.235 0.521-0.208 0.02-0.35-0.043-0.429-0.19v0l-4.872-9.171c-0.131-0.246 0.037-0.625 0.503-1.136 0.466-0.511 1.036-0.946 1.711-1.304v0c0.945-0.502 1.537-0.527 1.777-0.075v0l1.739 3.274 1.329-0.706-1.576-2.966c-0.131-0.246 0.04-0.627 0.512-1.14 0.472-0.514 1.045-0.95 1.719-1.309v0c0.939-0.499 1.528-0.522 1.769-0.071v0l5.036 9.479c0.069 0.129-0.182 0.394-0.752 0.795-0.561 0.403-1.143 0.765-1.748 1.086-0.61 0.324-1.019 0.496-1.226 0.516-0.213 0.023-0.359-0.039-0.437-0.185v0l-1.815-3.415-1.329 0.706z" fill="#000000" data-fill-palette-color="accent"/>
								<path d="M61.149 13.221c0.032 0.143-0.281 0.331-0.936 0.564-0.655 0.24-1.316 0.434-1.985 0.582-0.675 0.149-1.111 0.205-1.31 0.167-0.205-0.036-0.326-0.135-0.362-0.298v0l-2.237-10.12c-0.06-0.272 0.198-0.595 0.776-0.968 0.584-0.374 1.275-0.649 2.073-0.826v0c0.285-0.063 0.502-0.097 0.651-0.103v0c0.388-0.031 0.706 0.147 0.955 0.534v0l2.517 3.904 0.068-0.015-0.861-3.892c-0.06-0.272 0.195-0.594 0.767-0.966 0.578-0.373 1.269-0.648 2.073-0.825v0c0.688-0.152 1.155-0.116 1.402 0.108v0c0.171 0.159 0.274 0.317 0.309 0.473v0l2.28 10.315c0.032 0.143-0.281 0.331-0.937 0.564-0.655 0.24-1.384 0.449-2.189 0.627-0.811 0.179-1.278 0.174-1.402-0.017v0l-2.424-3.72-0.088 0.02z" fill="#000000" data-fill-palette-color="accent"/>
								<path d="M78.698 11.603c-0.001 0.126-0.344 0.223-1.029 0.291-0.685 0.068-1.376 0.099-2.074 0.093-0.691-0.005-1.129-0.039-1.315-0.1-0.192-0.068-0.288-0.175-0.286-0.321v0l0.083-10.495c0.002-0.246 0.329-0.489 0.982-0.729 0.653-0.234 1.385-0.348 2.196-0.342v0c0.724 0.006 1.195 0.162 1.411 0.47v0c0.079 0.107 0.118 0.217 0.117 0.33v0z" fill="#000000" data-fill-palette-color="accent"/>
								<path d="M93.517 14.551c-0.458 0.004-0.921-0.028-1.39-0.095-0.462-0.066-0.91-0.148-1.344-0.248-0.434-0.1-0.765-0.186-0.994-0.259-0.234-0.081-0.532-0.208-0.894-0.38-0.361-0.179-0.683-0.379-0.966-0.601-0.281-0.228-0.569-0.533-0.863-0.914-0.288-0.38-0.505-0.798-0.652-1.255v0c-0.339-1.074-0.337-2.355 0.005-3.844v0c0.23-0.997 0.588-1.845 1.077-2.544 0.487-0.692 1.002-1.198 1.545-1.516 0.542-0.312 1.127-0.528 1.756-0.649v0c1.015-0.203 1.988-0.197 2.92 0.018v0c1.334 0.307 2.267 0.635 2.801 0.982v0c0.242 0.165 0.442 0.375 0.602 0.63 0.159 0.255 0.194 0.58 0.103 0.974-0.091 0.395-0.3 0.872-0.626 1.431-0.333 0.557-0.681 0.794-1.043 0.711v0c-0.11-0.025-0.495-0.206-1.154-0.542-0.665-0.337-1.125-0.535-1.377-0.593v0c-0.382-0.088-0.755 0.051-1.119 0.418-0.37 0.365-0.646 0.942-0.828 1.732-0.182 0.79-0.204 1.433-0.066 1.928 0.132 0.494 0.389 0.785 0.771 0.872v0c0.278 0.064 0.803 0.066 1.574 0.005 0.764-0.063 1.208-0.08 1.331-0.052v0c0.343 0.079 0.536 0.454 0.579 1.126 0.051 0.666 0.033 1.19-0.055 1.572-0.089 0.388-0.279 0.665-0.569 0.83-0.285 0.173-0.66 0.261-1.124 0.263z" fill="#000000" data-fill-palette-color="accent"/>
								<path d="M105.17 19.01c-0.075 0.148-0.454 0.094-1.136-0.162-0.682-0.256-1.313-0.532-1.894-0.826-0.587-0.297-0.945-0.524-1.075-0.679-0.136-0.158-0.166-0.311-0.091-0.46v0l4.84-9.547c0.132-0.261 0.357-0.381 0.675-0.362 0.315 0.026 0.834 0.222 1.557 0.588v0l5.582 2.83c0.213 0.108 0.128 0.542-0.257 1.3-0.385 0.759-0.723 1.309-1.016 1.653-0.296 0.349-0.521 0.484-0.675 0.406v0l-2.982-1.701-0.522 1.031c1.372 0.614 2.284 1.035 2.734 1.263v0c0.148 0.075 0.207 0.209 0.176 0.402-0.022 0.19-0.148 0.513-0.38 0.97-0.231 0.456-0.502 0.866-0.813 1.23-0.311 0.364-0.558 0.499-0.742 0.406v0l-2.453-1.355z" fill="#000000" data-fill-palette-color="accent"/>
								<path d="M119.557 29.817l-4.74-3.994c-0.432-0.364-0.7-0.629-0.803-0.794-0.105-0.175-0.11-0.318-0.016-0.43v0l6.762-8.026c0.158-0.188 0.566-0.166 1.222 0.066 0.652 0.237 1.288 0.616 1.908 1.138v0c0.554 0.467 0.816 0.887 0.787 1.263v0c-0.008 0.133-0.048 0.242-0.12 0.328v0l-4.823 5.724c1.112 0.815 1.934 1.447 2.468 1.897v0c0.178 0.15 0.025 0.512-0.459 1.086-0.48 0.569-0.933 1.03-1.361 1.382-0.423 0.347-0.698 0.467-0.825 0.36z" fill="#000000" data-fill-palette-color="accent"/>
								<path d="M134.287 40.809c-1.314 0.949-2.569 1.282-3.766 0.999-1.202-0.279-2.318-1.133-3.349-2.56-1.031-1.427-1.494-2.761-1.39-4 0.099-1.236 0.806-2.328 2.12-3.277v0l5.017-3.624c0.226-0.163 0.616-0.055 1.169 0.324 0.557 0.385 1.082 0.919 1.576 1.603v0c0.397 0.549 0.549 0.981 0.455 1.294v0c-0.076 0.235-0.173 0.396-0.292 0.481v0l-4.079 2.947c-1.029 0.743-1.681 1.276-1.957 1.598-0.279 0.317-0.326 0.604-0.139 0.863 0.183 0.253 0.461 0.298 0.835 0.134 0.37-0.169 1.085-0.636 2.146-1.403v0l3.91-2.824c0.226-0.163 0.618-0.053 1.175 0.332 0.557 0.385 1.078 0.914 1.564 1.587v0c0.416 0.576 0.576 1.018 0.479 1.326v0c-0.084 0.224-0.185 0.379-0.304 0.465v0z" fill="#000000" data-fill-palette-color="accent"/>
								<path d="M134.254 51.897v0c-0.282-0.774-0.478-1.516-0.588-2.225-0.112-0.716-0.041-1.12 0.215-1.213v0c0.15-0.055 0.713-0.012 1.69 0.126 0.979 0.145 2.383 0.387 4.211 0.725v0c2.4-2.671 3.674-4.034 3.824-4.088v0c0.231-0.084 0.552 0.177 0.964 0.783 0.421 0.61 0.732 1.193 0.935 1.749 0.203 0.556 0.28 1.04 0.233 1.453-0.039 0.417-0.137 0.672-0.294 0.765v0l-2.584 1.642 0.031 0.084 2.941-0.573c0.079-0.015 0.226 0.077 0.44 0.274 0.214 0.198 0.444 0.482 0.692 0.851 0.254 0.367 0.479 0.819 0.674 1.356 0.193 0.531 0.291 1.001 0.292 1.411 0.005 0.401-0.168 0.666-0.517 0.793v0c-0.181 0.066-0.775 0.067-1.782 0.002-1.006-0.065-2.421-0.2-4.242-0.405v0c-2.154 2.723-3.307 4.112-3.456 4.166v0c-0.518 0.189-1.006-0.344-1.464-1.599v0c-0.683-1.873-0.796-2.97-0.34-3.291v0l1.984-1.424-0.034-0.093-2.397 0.29c-0.547 0.072-1.022-0.448-1.428-1.558z" fill="#000000" data-fill-palette-color="accent"/>
								<path d="M6.847 103.118c-0.119 0.041-0.328-0.255-0.626-0.891-0.3-0.641-0.565-1.291-0.795-1.95-0.231-0.665-0.349-1.096-0.354-1.291-0.001-0.204 0.068-0.33 0.207-0.378v0l6.947-2.415-0.779-2.24c-0.041-0.119 0.076-0.276 0.353-0.471 0.271-0.193 0.704-0.393 1.301-0.6 0.596-0.207 1.159-0.329 1.687-0.366 0.523-0.034 0.821 0.056 0.896 0.269v0l3.04 8.746c0.055 0.157-0.058 0.319-0.337 0.486-0.282 0.161-0.708 0.341-1.279 0.54-0.571 0.199-1.132 0.327-1.681 0.384-0.548 0.064-0.857-0.008-0.93-0.215v0l-0.703-2.024z" fill="#000000" data-fill-palette-color="accent"/>
								<path d="M15.945 120.655v0l-3.955-6.082c-0.304-0.468-0.476-0.804-0.514-1.01-0.038-0.205 0.015-0.355 0.16-0.448v0l9.081-5.907c0.245-0.159 0.493-0.162 0.744-0.008 0.251 0.154 0.566 0.523 0.947 1.109v0l3.749 5.764c0.13 0.201-0.136 0.516-0.799 0.948-0.668 0.435-1.202 0.723-1.602 0.863-0.409 0.139-0.659 0.139-0.749 0v0c-0.406-0.624-1.025-1.711-1.859-3.261v0l-0.961 0.625c0.981 1.375 1.611 2.277 1.89 2.706v0c0.167 0.256-0.054 0.582-0.66 0.976-0.602 0.391-1.091 0.638-1.468 0.741-0.372 0.099-0.613 0.062-0.726-0.111v0l-1.626-2.628-0.919 0.598c1.202 1.58 2.009 2.688 2.422 3.323v0c0.13 0.201-0.139 0.518-0.807 0.953-0.668 0.435-1.204 0.72-1.607 0.855-0.4 0.141-0.647 0.139-0.741-0.006z" fill="#000000" data-fill-palette-color="accent"/>
								<path d="M28.273 133.317c-0.409-0.233-0.8-0.495-1.173-0.787-0.373-0.291-0.726-0.59-1.058-0.896-0.332-0.307-0.581-0.551-0.748-0.733-0.167-0.182-0.365-0.442-0.594-0.78-0.23-0.339-0.412-0.68-0.548-1.023-0.136-0.343-0.234-0.75-0.295-1.223-0.061-0.482-0.042-0.962 0.057-1.44v0c0.243-1.114 0.89-2.24 1.941-3.377v0c0.708-0.766 1.45-1.333 2.226-1.702 0.78-0.364 1.488-0.547 2.122-0.548 0.63-0.006 1.254 0.097 1.874 0.307v0c0.996 0.333 1.85 0.828 2.562 1.487v0c1.02 0.943 1.675 1.702 1.965 2.279v0c0.133 0.268 0.205 0.551 0.217 0.852 0.012 0.31-0.122 0.616-0.402 0.918-0.275 0.298-0.7 0.61-1.275 0.938-0.57 0.323-0.995 0.356-1.272 0.1v0c-0.083-0.077-0.332-0.429-0.747-1.057-0.41-0.633-0.711-1.037-0.901-1.213v0c-0.293-0.271-0.695-0.34-1.207-0.207-0.507 0.137-1.04 0.508-1.6 1.113-0.559 0.605-0.902 1.157-1.028 1.655-0.131 0.503-0.05 0.891 0.243 1.162v0c0.21 0.194 0.669 0.46 1.378 0.799 0.704 0.335 1.103 0.545 1.196 0.63v0c0.259 0.239 0.242 0.663-0.049 1.272-0.296 0.613-0.579 1.066-0.85 1.359-0.271 0.293-0.577 0.443-0.92 0.452-0.334 0.008-0.705-0.104-1.114-0.337z" fill="#000000" data-fill-palette-color="accent"/>
								<path d="M40.814 141.076c-0.072 0.135-0.433 0.079-1.083-0.169-0.654-0.242-1.292-0.528-1.914-0.857-0.616-0.327-0.994-0.572-1.133-0.737-0.139-0.164-0.168-0.322-0.086-0.474v0l4.933-9.297c0.134-0.252 0.546-0.327 1.235-0.224 0.696 0.106 1.387 0.341 2.074 0.705v0c0.957 0.508 1.315 0.987 1.076 1.44v0l-1.766 3.328 1.338 0.71 1.598-3.011c0.134-0.252 0.552-0.324 1.253-0.215 0.696 0.106 1.387 0.341 2.074 0.705v0c0.951 0.505 1.306 0.983 1.067 1.435v0l-5.102 9.614c-0.072 0.135-0.436 0.077-1.092-0.174-0.66-0.245-1.298-0.531-1.914-0.858-0.61-0.324-0.985-0.568-1.124-0.731-0.145-0.167-0.176-0.327-0.095-0.48v0l1.835-3.459-1.338-0.71z" fill="#000000" data-fill-palette-color="accent"/>
								<path d="M59.285 147.891c-0.033 0.149-0.403 0.19-1.109 0.123-0.701-0.059-1.393-0.164-2.074-0.314-0.681-0.15-1.107-0.285-1.279-0.404-0.171-0.119-0.238-0.263-0.2-0.432v0l2.26-10.258c0.061-0.279 0.436-0.465 1.123-0.559 0.694-0.092 1.446-0.049 2.257 0.13v0c0.292 0.064 0.507 0.122 0.646 0.173v0c0.37 0.143 0.586 0.442 0.649 0.898v0l0.656 4.666 0.068 0.015 0.869-3.942c0.061-0.279 0.433-0.466 1.113-0.561 0.687-0.093 1.44-0.05 2.258 0.13v0c0.701 0.154 1.116 0.385 1.245 0.693v0c0.095 0.218 0.125 0.405 0.091 0.561v0l-2.306 10.462c-0.033 0.149-0.403 0.19-1.108 0.123-0.708-0.061-1.47-0.181-2.288-0.361-0.818-0.18-1.242-0.386-1.273-0.617v0l-0.652-4.45-0.078-0.018z" fill="#000000" data-fill-palette-color="accent"/>
								<path d="M78.825 149.881c0.001 0.126-0.347 0.229-1.044 0.308-0.697 0.079-1.394 0.121-2.092 0.126-0.704 0.006-1.153-0.021-1.346-0.079-0.193-0.065-0.29-0.17-0.292-0.316v0l-0.086-10.644c-0.002-0.252 0.325-0.504 0.981-0.755 0.662-0.251 1.402-0.38 2.219-0.387v0c0.731-0.006 1.214 0.146 1.449 0.457v0c0.081 0.112 0.121 0.225 0.123 0.338v0z" fill="#000000" data-fill-palette-color="accent"/>
								<path d="M95.693 147.24c-0.423 0.206-0.86 0.382-1.31 0.526-0.451 0.144-0.896 0.267-1.337 0.369-0.44 0.101-0.783 0.17-1.027 0.205-0.244 0.036-0.571 0.053-0.98 0.051-0.409-0.001-0.794-0.043-1.153-0.124-0.359-0.081-0.752-0.23-1.176-0.445-0.433-0.221-0.819-0.507-1.159-0.859v0c-0.784-0.829-1.349-1.998-1.695-3.507v0c-0.234-1.017-0.284-1.949-0.152-2.797 0.139-0.85 0.386-1.537 0.743-2.063 0.35-0.524 0.787-0.982 1.31-1.374v0c0.836-0.635 1.726-1.061 2.672-1.279v0c1.353-0.311 2.35-0.424 2.99-0.339v0c0.296 0.041 0.571 0.141 0.826 0.301 0.263 0.165 0.44 0.448 0.532 0.849 0.091 0.395 0.11 0.922 0.057 1.582-0.054 0.653-0.266 1.022-0.635 1.108v0c-0.11 0.025-0.541 0.032-1.294 0.021-0.754-0.018-1.257 0.003-1.51 0.06v0c-0.389 0.089-0.672 0.383-0.851 0.881-0.172 0.496-0.166 1.146 0.019 1.949 0.184 0.803 0.447 1.397 0.787 1.782 0.342 0.392 0.708 0.543 1.097 0.454v0c0.278-0.064 0.757-0.293 1.437-0.688 0.673-0.393 1.071-0.604 1.194-0.632v0c0.343-0.079 0.684 0.173 1.023 0.757 0.34 0.59 0.555 1.079 0.644 1.467 0.089 0.389 0.041 0.727-0.146 1.015-0.181 0.28-0.483 0.523-0.906 0.73z" fill="#000000" data-fill-palette-color="accent"/>
								<path d="M109.148 141.362c0.078 0.154-0.194 0.433-0.816 0.837-0.622 0.404-1.227 0.755-1.814 1.052-0.593 0.3-0.993 0.458-1.201 0.473-0.208 0.016-0.351-0.053-0.429-0.207v0l-4.895-9.675c-0.135-0.267-0.101-0.522 0.103-0.767 0.21-0.248 0.682-0.557 1.417-0.93v0l5.665-2.866c0.213-0.108 0.515 0.223 0.905 0.994 0.39 0.771 0.635 1.38 0.735 1.829 0.109 0.451 0.087 0.716-0.067 0.793v0l-3.171 1.415 0.526 1.04c1.319-0.749 2.206-1.239 2.663-1.47v0c0.154-0.078 0.3-0.047 0.437 0.092 0.14 0.13 0.329 0.429 0.566 0.897 0.234 0.462 0.407 0.93 0.519 1.402 0.112 0.472 0.076 0.754-0.107 0.847v0l-2.58 1.194z" fill="#000000" data-fill-palette-color="accent"/>
								<path d="M125.884 130.19l-4.806 4.04c-0.437 0.368-0.749 0.591-0.935 0.669-0.19 0.073-0.332 0.054-0.426-0.058v0l-6.85-8.148c-0.162-0.193-0.071-0.596 0.275-1.207 0.35-0.616 0.838-1.187 1.463-1.712v0c0.559-0.47 1.029-0.661 1.408-0.571v0c0.134 0.035 0.237 0.096 0.31 0.182v0l4.88 5.805c1.003-0.965 1.777-1.676 2.321-2.133v0c0.183-0.154 0.518 0.059 1.006 0.639 0.487 0.58 0.868 1.115 1.141 1.605 0.274 0.481 0.345 0.777 0.213 0.889z" fill="#000000" data-fill-palette-color="accent"/>
								<path d="M134.581 111.866c1.329 0.963 2.048 2.066 2.155 3.31 0.112 1.238-0.356 2.581-1.404 4.028-1.049 1.447-2.185 2.319-3.408 2.614-1.223 0.295-2.499-0.039-3.828-1.002v0l-5.085-3.683c-0.231-0.168-0.249-0.579-0.054-1.234 0.19-0.658 0.534-1.332 1.033-2.02v0c0.402-0.554 0.77-0.837 1.107-0.848v0c0.256-0.003 0.444 0.039 0.562 0.125v0l4.132 2.994c1.044 0.756 1.76 1.218 2.148 1.383 0.397 0.165 0.69 0.118 0.877-0.14 0.187-0.258 0.142-0.541-0.136-0.849-0.278-0.308-0.952-0.849-2.022-1.625v0l-3.963-2.871c-0.231-0.168-0.249-0.579-0.054-1.233 0.19-0.658 0.532-1.329 1.027-2.012v0c0.421-0.581 0.796-0.872 1.124-0.872v0c0.249 0.008 0.432 0.055 0.551 0.14v0z" fill="#000000" data-fill-palette-color="accent"/>
								<path d="M143.464 104.036v0c-0.288 0.786-0.62 1.492-0.998 2.118-0.384 0.624-0.704 0.889-0.959 0.795v0c-0.15-0.055-0.559-0.456-1.227-1.202-0.666-0.753-1.595-1.857-2.789-3.312v0c-3.609 0.505-5.488 0.73-5.638 0.675v0c-0.237-0.087-0.319-0.502-0.244-1.246 0.08-0.742 0.224-1.397 0.432-1.965 0.205-0.562 0.457-0.989 0.756-1.283 0.307-0.298 0.551-0.432 0.731-0.402v0l3.074 0.414 0.028-0.075-2.644-1.476c-0.07-0.04-0.125-0.209-0.165-0.506-0.036-0.289-0.031-0.659 0.013-1.11 0.051-0.448 0.176-0.944 0.375-1.486 0.199-0.543 0.43-0.971 0.693-1.286 0.259-0.322 0.567-0.419 0.922-0.288v0c0.181 0.066 0.641 0.454 1.379 1.162 0.738 0.709 1.745 1.738 3.019 3.089v0c3.455-0.703 5.257-1.027 5.408-0.972v0c0.524 0.192 0.552 0.927 0.084 2.207v0c-0.692 1.891-1.32 2.814-1.884 2.77v0l-2.466-0.191-0.035 0.093 2.049 1.334c0.468 0.306 0.497 1.02 0.086 2.143z" fill="#000000" data-fill-palette-color="accent"/>
								<path d="M1.605 76.223c0-2.563 2.078-4.641 4.641-4.641 2.563 0 4.641 2.078 4.64 4.641 0 2.563-2.078 4.641-4.64 4.641-2.563 0-4.641-2.078-4.641-4.641z" fill="#000000" data-fill-palette-color="accent"/>
								<path d="M139.43 76.223c0-2.563 2.078-4.641 4.64-4.641 2.563 0 4.641 2.078 4.641 4.641 0 2.563-2.078 4.641-4.641 4.641-2.563 0-4.641-2.078-4.64-4.641z" fill="#000000" data-fill-palette-color="accent"/>
							</g>
						</svg>
					</g>
				</svg>
			</g>
		</svg>
	</g>
	<defs/>
</svg>